<svg xmlns="http://www.w3.org/2000/svg" xlink="http://www.w3.org/1999/xlink" width="0" height="0" style="display:none;"><symbol viewBox="0 0 24 24" id="mail-line"><path fill="none" d="M0 0h24v24H0z"/><path d="M3 3h18a1 1 0 0 1 1 1v16a1 1 0 0 1-1 1H3a1 1 0 0 1-1-1V4a1 1 0 0 1 1-1zm17 4.238l-7.928 7.1L4 7.216V19h16V7.238zM4.511 5l7.55 6.662L19.502 5H4.511z"/></symbol><symbol viewBox="0 0 24 24" id="mail-fill"><path fill="none" d="M0 0h24v24H0z"/><path d="M3 3h18a1 1 0 0 1 1 1v16a1 1 0 0 1-1 1H3a1 1 0 0 1-1-1V4a1 1 0 0 1 1-1zm9.06 8.683L5.648 6.238 4.353 7.762l7.72 6.555 7.581-6.56-1.308-1.513-6.285 5.439z"/></symbol><symbol viewBox="0 0 24 24" id="phone-line"><path fill="none" d="M0 0h24v24H0z"/><path d="M9.366 10.682a10.556 10.556 0 0 0 3.952 3.952l.884-1.238a1 1 0 0 1 1.294-.296 11.422 11.422 0 0 0 4.583 1.364 1 1 0 0 1 .921.997v4.462a1 1 0 0 1-.898.995c-.53.055-1.064.082-1.602.082C9.94 21 3 14.06 3 5.5c0-.538.027-1.072.082-1.602A1 1 0 0 1 4.077 3h4.462a1 1 0 0 1 .997.921A11.422 11.422 0 0 0 10.9 8.504a1 1 0 0 1-.296 1.294l-1.238.884zm-2.522-.657l1.9-1.357A13.41 13.41 0 0 1 7.647 5H5.01c-.006.166-.009.333-.009.5C5 12.956 11.044 19 18.5 19c.167 0 .334-.003.5-.01v-2.637a13.41 13.41 0 0 1-3.668-1.097l-1.357 1.9a12.442 12.442 0 0 1-1.588-.75l-.058-.033a12.556 12.556 0 0 1-4.702-4.702l-.033-.058a12.442 12.442 0 0 1-.75-1.588z"/></symbol><symbol viewBox="0 0 24 24" id="phone-fill"><path fill="none" d="M0 0h24v24H0z"/><path d="M21 16.42v3.536a1 1 0 0 1-.93.998c-.437.03-.794.046-1.07.046-8.837 0-16-7.163-16-16 0-.276.015-.633.046-1.07A1 1 0 0 1 4.044 3H7.58a.5.5 0 0 1 .498.45c.023.23.044.413.064.552A13.901 13.901 0 0 0 9.35 8.003c.095.2.033.439-.147.567l-2.158 1.542a13.047 13.047 0 0 0 6.844 6.844l1.54-2.154a.462.462 0 0 1 .573-.149 13.901 13.901 0 0 0 4 1.205c.139.02.322.042.55.064a.5.5 0 0 1 .449.498z"/></symbol><symbol viewBox="0 0 24 24" id="facebook-line"><path fill="none" d="M0 0h24v24H0z"/><path d="M13 9h4.5l-.5 2h-4v9h-2v-9H7V9h4V7.128c0-1.783.186-2.43.534-3.082a3.635 3.635 0 0 1 1.512-1.512C13.698 2.186 14.345 2 16.128 2c.522 0 .98.05 1.372.15V4h-1.372c-1.324 0-1.727.078-2.138.298-.304.162-.53.388-.692.692-.22.411-.298.814-.298 2.138V9z"/></symbol><symbol viewBox="0 0 24 24" id="facebook-fill"><path fill="none" d="M0 0h24v24H0z"/><path d="M14 13.5h2.5l1-4H14v-2c0-1.03 0-2 2-2h1.5V2.14c-.326-.043-1.557-.14-2.857-.14C11.928 2 10 3.657 10 6.7v2.8H7v4h3V22h4v-8.5z"/></symbol><symbol viewBox="0 0 24 24" id="linkedin-line"><path fill="none" d="M0 0h24v24H0z"/><path d="M12 9.55C12.917 8.613 14.111 8 15.5 8a5.5 5.5 0 0 1 5.5 5.5V21h-2v-7.5a3.5 3.5 0 0 0-7 0V21h-2V8.5h2v1.05zM5 6.5a1.5 1.5 0 1 1 0-3 1.5 1.5 0 0 1 0 3zm-1 2h2V21H4V8.5z"/></symbol><symbol viewBox="0 0 24 24" id="linkedin-fill"><path fill="none" d="M0 0h24v24H0z"/><path d="M6.94 5a2 2 0 1 1-4-.002 2 2 0 0 1 4 .002zM7 8.48H3V21h4V8.48zm6.32 0H9.34V21h3.94v-6.57c0-3.66 4.77-4 4.77 0V21H22v-7.93c0-6.17-7.06-5.94-8.72-2.91l.04-1.68z"/></symbol><symbol viewBox="0 0 24 24" id="instagram-line"><path fill="none" d="M0 0h24v24H0z"/><path d="M12 9a3 3 0 1 0 0 6 3 3 0 0 0 0-6zm0-2a5 5 0 1 1 0 10 5 5 0 0 1 0-10zm6.5-.25a1.25 1.25 0 0 1-2.5 0 1.25 1.25 0 0 1 2.5 0zM12 4c-2.474 0-2.878.007-4.029.058-.784.037-1.31.142-1.798.332-.434.168-.747.369-1.08.703a2.89 2.89 0 0 0-.704 1.08c-.19.49-.295 1.015-.331 1.798C4.006 9.075 4 9.461 4 12c0 2.474.007 2.878.058 4.029.037.783.142 1.31.331 1.797.17.435.37.748.702 1.08.337.336.65.537 1.08.703.494.191 1.02.297 1.8.333C9.075 19.994 9.461 20 12 20c2.474 0 2.878-.007 4.029-.058.782-.037 1.309-.142 1.797-.331.433-.169.748-.37 1.08-.702.337-.337.538-.65.704-1.08.19-.493.296-1.02.332-1.8.052-1.104.058-1.49.058-4.029 0-2.474-.007-2.878-.058-4.029-.037-.782-.142-1.31-.332-1.798a2.911 2.911 0 0 0-.703-1.08 2.884 2.884 0 0 0-1.08-.704c-.49-.19-1.016-.295-1.798-.331C14.925 4.006 14.539 4 12 4zm0-2c2.717 0 3.056.01 4.122.06 1.065.05 1.79.217 2.428.465.66.254 1.216.598 1.772 1.153a4.908 4.908 0 0 1 1.153 1.772c.247.637.415 1.363.465 2.428.047 1.066.06 1.405.06 4.122 0 2.717-.01 3.056-.06 4.122-.05 1.065-.218 1.79-.465 2.428a4.883 4.883 0 0 1-1.153 1.772 4.915 4.915 0 0 1-1.772 1.153c-.637.247-1.363.415-2.428.465-1.066.047-1.405.06-4.122.06-2.717 0-3.056-.01-4.122-.06-1.065-.05-1.79-.218-2.428-.465a4.89 4.89 0 0 1-1.772-1.153 4.904 4.904 0 0 1-1.153-1.772c-.248-.637-.415-1.363-.465-2.428C2.013 15.056 2 14.717 2 12c0-2.717.01-3.056.06-4.122.05-1.066.217-1.79.465-2.428a4.88 4.88 0 0 1 1.153-1.772A4.897 4.897 0 0 1 5.45 2.525c.638-.248 1.362-.415 2.428-.465C8.944 2.013 9.283 2 12 2z"/></symbol><symbol viewBox="0 0 24 24" id="instagram-fill"><path fill="none" d="M0 0h24v24H0z"/><path d="M12 2c2.717 0 3.056.01 4.122.06 1.065.05 1.79.217 2.428.465.66.254 1.216.598 1.772 1.153a4.908 4.908 0 0 1 1.153 1.772c.247.637.415 1.363.465 2.428.047 1.066.06 1.405.06 4.122 0 2.717-.01 3.056-.06 4.122-.05 1.065-.218 1.79-.465 2.428a4.883 4.883 0 0 1-1.153 1.772 4.915 4.915 0 0 1-1.772 1.153c-.637.247-1.363.415-2.428.465-1.066.047-1.405.06-4.122.06-2.717 0-3.056-.01-4.122-.06-1.065-.05-1.79-.218-2.428-.465a4.89 4.89 0 0 1-1.772-1.153 4.904 4.904 0 0 1-1.153-1.772c-.248-.637-.415-1.363-.465-2.428C2.013 15.056 2 14.717 2 12c0-2.717.01-3.056.06-4.122.05-1.066.217-1.79.465-2.428a4.88 4.88 0 0 1 1.153-1.772A4.897 4.897 0 0 1 5.45 2.525c.638-.248 1.362-.415 2.428-.465C8.944 2.013 9.283 2 12 2zm0 5a5 5 0 1 0 0 10 5 5 0 0 0 0-10zm6.5-.25a1.25 1.25 0 0 0-2.5 0 1.25 1.25 0 0 0 2.5 0zM12 9a3 3 0 1 1 0 6 3 3 0 0 1 0-6z"/></symbol><symbol viewBox="0 0 24 24" id="linkedin-box-line"><path fill="none" d="M0 0h24v24H0z"/><path d="M4 3h16a1 1 0 0 1 1 1v16a1 1 0 0 1-1 1H4a1 1 0 0 1-1-1V4a1 1 0 0 1 1-1zm1 2v14h14V5H5zm2.5 4a1.5 1.5 0 1 1 0-3 1.5 1.5 0 0 1 0 3zm-1 1h2v7.5h-2V10zm5.5.43c.584-.565 1.266-.93 2-.93 2.071 0 3.5 1.679 3.5 3.75v4.25h-2v-4.25a1.75 1.75 0 0 0-3.5 0v4.25h-2V10h2v.43z"/></symbol><symbol viewBox="0 0 24 24" id="linkedin-box-fill"><path fill="none" d="M0 0h24v24H0z"/><path d="M18.335 18.339H15.67v-4.177c0-.996-.02-2.278-1.39-2.278-1.389 0-1.601 1.084-1.601 2.205v4.25h-2.666V9.75h2.56v1.17h.035c.358-.674 1.228-1.387 2.528-1.387 2.7 0 3.2 1.778 3.2 4.091v4.715zM7.003 8.575a1.546 1.546 0 0 1-1.548-1.549 1.548 1.548 0 1 1 1.547 1.549zm1.336 9.764H5.666V9.75H8.34v8.589zM19.67 3H4.329C3.593 3 3 3.58 3 4.297v15.406C3 20.42 3.594 21 4.328 21h15.338C20.4 21 21 20.42 21 19.703V4.297C21 3.58 20.4 3 19.666 3h.003z"/></symbol><symbol viewBox="0 0 24 24" id="paypal-fill"><path fill="none" d="M0 0h24v24H0z"/><path d="M20.067 8.478c.492.88.556 2.014.3 3.327-.74 3.806-3.276 5.12-6.514 5.12h-.5a.805.805 0 0 0-.794.68l-.04.22-.63 3.993-.032.17a.804.804 0 0 1-.794.679H7.72a.483.483 0 0 1-.477-.558L7.418 21h1.518l.95-6.02h1.385c4.678 0 7.75-2.203 8.796-6.502zm-2.96-5.09c.762.868.983 1.81.752 3.285-.019.123-.04.24-.062.36-.735 3.773-3.089 5.446-6.956 5.446H8.957c-.63 0-1.174.414-1.354 1.002l-.014-.002-.93 5.894H3.121a.051.051 0 0 1-.05-.06l2.598-16.51A.95.95 0 0 1 6.607 2h5.976c2.183 0 3.716.469 4.523 1.388z"/></symbol><symbol viewBox="0 0 24 24" id="paypal-line"><path fill="none" d="M0 0h24v24H0z"/><path d="M8.495 20.667h1.551l.538-3.376a2.805 2.805 0 0 1 2.77-2.366h.5c2.677 0 4.06-.983 4.55-3.503.208-1.066.117-1.73-.171-2.102-1.207 3.054-3.79 4.16-6.962 4.16h-.884c-.384 0-.794.209-.852.58l-1.04 6.607zm-4.944-.294a.551.551 0 0 1-.544-.637L5.68 2.776A.92.92 0 0 1 6.59 2h6.424c2.212 0 3.942.467 4.899 1.558.87.99 1.123 2.084.871 3.692.36.191.668.425.916.706.818.933.978 2.26.668 3.85-.74 3.805-3.276 5.12-6.514 5.12h-.5a.805.805 0 0 0-.794.679l-.702 4.383a.804.804 0 0 1-.794.679H6.72a.483.483 0 0 1-.477-.558l.274-1.736H3.55zm6.836-8.894h.884c3.19 0 4.895-1.212 5.483-4.229.02-.101.037-.203.053-.309.166-1.06.05-1.553-.398-2.063-.465-.53-1.603-.878-3.396-.878h-5.5L5.246 18.373h1.561l.73-4.628.007.001a2.915 2.915 0 0 1 2.843-2.267z"/></symbol><symbol viewBox="0 0 24 24" id="mastercard-line"><path fill="none" d="M0 0h24v24H0z"/><path d="M12 18.294a7.3 7.3 0 1 1 0-12.588 7.3 7.3 0 1 1 0 12.588zm1.702-1.384a5.3 5.3 0 1 0 0-9.82A7.273 7.273 0 0 1 15.6 12c0 1.89-.719 3.614-1.898 4.91zm-3.404-9.82a5.3 5.3 0 1 0 0 9.82A7.273 7.273 0 0 1 8.4 12c0-1.89.719-3.614 1.898-4.91zM12 8.205A5.284 5.284 0 0 0 10.4 12c0 1.488.613 2.832 1.6 3.795A5.284 5.284 0 0 0 13.6 12 5.284 5.284 0 0 0 12 8.205z"/></symbol><symbol viewBox="0 0 24 24" id="mastercard-fill"><path fill="none" d="M0 0h24v24H0z"/><path d="M12 6.654a6.786 6.786 0 0 1 2.596 5.344A6.786 6.786 0 0 1 12 17.34a6.786 6.786 0 0 1-2.596-5.343A6.786 6.786 0 0 1 12 6.654zm-.87-.582A7.783 7.783 0 0 0 8.4 12a7.783 7.783 0 0 0 2.728 5.926 6.798 6.798 0 1 1 .003-11.854zm1.742 11.854A7.783 7.783 0 0 0 15.6 12a7.783 7.783 0 0 0-2.73-5.928 6.798 6.798 0 1 1 .003 11.854z"/></symbol><symbol viewBox="0 0 24 24" id="twitter-line"><path fill="none" d="M0 0h24v24H0z"/><path d="M15.3 5.55a2.9 2.9 0 0 0-2.9 2.847l-.028 1.575a.6.6 0 0 1-.68.583l-1.561-.212c-2.054-.28-4.022-1.226-5.91-2.799-.598 3.31.57 5.603 3.383 7.372l1.747 1.098a.6.6 0 0 1 .034.993L7.793 18.17c.947.059 1.846.017 2.592-.131 4.718-.942 7.855-4.492 7.855-10.348 0-.478-1.012-2.141-2.94-2.141zm-4.9 2.81a4.9 4.9 0 0 1 8.385-3.355c.711-.005 1.316.175 2.669-.645-.335 1.64-.5 2.352-1.214 3.331 0 7.642-4.697 11.358-9.463 12.309-3.268.652-8.02-.419-9.382-1.841.694-.054 3.514-.357 5.144-1.55C5.16 15.7-.329 12.47 3.278 3.786c1.693 1.977 3.41 3.323 5.15 4.037 1.158.475 1.442.465 1.973.538z"/></symbol><symbol viewBox="0 0 24 24" id="twitter-fill"><path fill="none" d="M0 0h24v24H0z"/><path d="M22.162 5.656a8.384 8.384 0 0 1-2.402.658A4.196 4.196 0 0 0 21.6 4c-.82.488-1.719.83-2.656 1.015a4.182 4.182 0 0 0-7.126 3.814 11.874 11.874 0 0 1-8.62-4.37 4.168 4.168 0 0 0-.566 2.103c0 1.45.738 2.731 1.86 3.481a4.168 4.168 0 0 1-1.894-.523v.052a4.185 4.185 0 0 0 3.355 4.101 4.21 4.21 0 0 1-1.89.072A4.185 4.185 0 0 0 7.97 16.65a8.394 8.394 0 0 1-6.191 1.732 11.83 11.83 0 0 0 6.41 1.88c7.693 0 11.9-6.373 11.9-11.9 0-.18-.005-.362-.013-.54a8.496 8.496 0 0 0 2.087-2.165z"/></symbol><symbol viewBox="0 0 24 24" id="whatsapp-line"><path fill="none" d="M0 0h24v24H0z"/><path d="M7.253 18.494l.724.423A7.953 7.953 0 0 0 12 20a8 8 0 1 0-8-8c0 1.436.377 2.813 1.084 4.024l.422.724-.653 2.401 2.4-.655zM2.004 22l1.352-4.968A9.954 9.954 0 0 1 2 12C2 6.477 6.477 2 12 2s10 4.477 10 10-4.477 10-10 10a9.954 9.954 0 0 1-5.03-1.355L2.004 22zM8.391 7.308c.134-.01.269-.01.403-.004.054.004.108.01.162.016.159.018.334.115.393.249.298.676.588 1.357.868 2.04.062.152.025.347-.093.537a4.38 4.38 0 0 1-.263.372c-.113.145-.356.411-.356.411s-.099.118-.061.265c.014.056.06.137.102.205l.059.095c.256.427.6.86 1.02 1.268.12.116.237.235.363.346.468.413.998.75 1.57 1l.005.002c.085.037.128.057.252.11.062.026.126.049.191.066a.35.35 0 0 0 .367-.13c.724-.877.79-.934.796-.934v.002a.482.482 0 0 1 .378-.127c.06.004.121.015.177.04.531.243 1.4.622 1.4.622l.582.261c.098.047.187.158.19.265.004.067.01.175-.013.373-.032.259-.11.57-.188.733a1.155 1.155 0 0 1-.21.302 2.378 2.378 0 0 1-.33.288 3.71 3.71 0 0 1-.125.09 5.024 5.024 0 0 1-.383.22 1.99 1.99 0 0 1-.833.23c-.185.01-.37.024-.556.014-.008 0-.568-.087-.568-.087a9.448 9.448 0 0 1-3.84-2.046c-.226-.199-.435-.413-.649-.626-.89-.885-1.562-1.84-1.97-2.742A3.47 3.47 0 0 1 6.9 9.62a2.729 2.729 0 0 1 .564-1.68c.073-.094.142-.192.261-.305.127-.12.207-.184.294-.228a.961.961 0 0 1 .371-.1z"/></symbol><symbol viewBox="0 0 24 24" id="whatsapp-fill"><path fill="none" d="M0 0h24v24H0z"/><path d="M2.004 22l1.352-4.968A9.954 9.954 0 0 1 2 12C2 6.477 6.477 2 12 2s10 4.477 10 10-4.477 10-10 10a9.954 9.954 0 0 1-5.03-1.355L2.004 22zM8.391 7.308a.961.961 0 0 0-.371.1 1.293 1.293 0 0 0-.294.228c-.12.113-.188.211-.261.306A2.729 2.729 0 0 0 6.9 9.62c.002.49.13.967.33 1.413.409.902 1.082 1.857 1.971 2.742.214.213.423.427.648.626a9.448 9.448 0 0 0 3.84 2.046l.569.087c.185.01.37-.004.556-.013a1.99 1.99 0 0 0 .833-.231c.166-.088.244-.132.383-.22 0 0 .043-.028.125-.09.135-.1.218-.171.33-.288.083-.086.155-.187.21-.302.078-.163.156-.474.188-.733.024-.198.017-.306.014-.373-.004-.107-.093-.218-.19-.265l-.582-.261s-.87-.379-1.401-.621a.498.498 0 0 0-.177-.041.482.482 0 0 0-.378.127v-.002c-.005 0-.072.057-.795.933a.35.35 0 0 1-.368.13 1.416 1.416 0 0 1-.191-.066c-.124-.052-.167-.072-.252-.109l-.005-.002a6.01 6.01 0 0 1-1.57-1c-.126-.11-.243-.23-.363-.346a6.296 6.296 0 0 1-1.02-1.268l-.059-.095a.923.923 0 0 1-.102-.205c-.038-.147.061-.265.061-.265s.243-.266.356-.41a4.38 4.38 0 0 0 .263-.373c.118-.19.155-.385.093-.536-.28-.684-.57-1.365-.868-2.041-.059-.134-.234-.23-.393-.249-.054-.006-.108-.012-.162-.016a3.385 3.385 0 0 0-.403.004z"/></symbol><symbol viewBox="0 0 24 24" id="visa-line"><path fill="none" d="M0 0h24v24H0z"/><path d="M22.222 15.768l-.225-1.125h-2.514l-.4 1.117-2.015.004a4199.19 4199.19 0 0 1 2.884-6.918c.164-.391.455-.59.884-.588.328.003.863.003 1.606.001L24 15.765l-1.778.003zm-2.173-2.666h1.62l-.605-2.82-1.015 2.82zM7.06 8.257l2.026.002-3.132 7.51-2.051-.002a950.849 950.849 0 0 1-1.528-5.956c-.1-.396-.298-.673-.679-.804C1.357 8.89.792 8.71 0 8.465V8.26h3.237c.56 0 .887.271.992.827.106.557.372 1.975.8 4.254L7.06 8.257zm4.81.002l-1.602 7.508-1.928-.002L9.94 8.257l1.93.002zm3.91-.139c.577 0 1.304.18 1.722.345l-.338 1.557c-.378-.152-1-.357-1.523-.35-.76.013-1.23.332-1.23.638 0 .498.816.749 1.656 1.293.959.62 1.085 1.177 1.073 1.782-.013 1.256-1.073 2.495-3.309 2.495-1.02-.015-1.388-.101-2.22-.396l.352-1.625c.847.355 1.206.468 1.93.468.663 0 1.232-.268 1.237-.735.004-.332-.2-.497-.944-.907-.744-.411-1.788-.98-1.774-2.122.017-1.462 1.402-2.443 3.369-2.443z"/></symbol><symbol viewBox="0 0 24 24" id="visa-fill"><path fill="none" d="M0 0h24v24H0z"/><path d="M1 4h22v2H1V4zm0 14h22v2H1v-2zm18.622-3.086l-.174-.87h-1.949l-.31.863-1.562.003c1.005-2.406 1.75-4.19 2.236-5.348.127-.303.353-.457.685-.455.254.002.669.002 1.245 0L21 14.912l-1.378.003zm-1.684-2.062h1.256l-.47-2.18-.786 2.18zM7.872 9.106l1.57.002-2.427 5.806-1.59-.001c-.537-2.07-.932-3.606-1.184-4.605-.077-.307-.23-.521-.526-.622-.263-.09-.701-.23-1.315-.419v-.16h2.509c.434 0 .687.21.769.64l.62 3.289 1.574-3.93zm3.727.002l-1.24 5.805-1.495-.002 1.24-5.805 1.495.002zM14.631 9c.446 0 1.01.138 1.334.267l-.262 1.204c-.293-.118-.775-.277-1.18-.27-.59.009-.954.256-.954.493 0 .384.632.578 1.284.999.743.48.84.91.831 1.378-.01.971-.831 1.929-2.564 1.929-.791-.012-1.076-.078-1.72-.306l.272-1.256c.656.274.935.361 1.495.361.515 0 .956-.207.96-.568.002-.257-.155-.384-.732-.702-.577-.317-1.385-.756-1.375-1.64C12.033 9.759 13.107 9 14.63 9z"/></symbol><symbol viewBox="0 0 24 24" id="map-pin-line"><path fill="none" d="M0 0h24v24H0z"/><path d="M12 20.9l4.95-4.95a7 7 0 1 0-9.9 0L12 20.9zm0 2.828l-6.364-6.364a9 9 0 1 1 12.728 0L12 23.728zM12 13a2 2 0 1 0 0-4 2 2 0 0 0 0 4zm0 2a4 4 0 1 1 0-8 4 4 0 0 1 0 8z"/></symbol><symbol viewBox="0 0 24 24" id="map-pin-fill"><path fill="none" d="M0 0h24v24H0z"/><path d="M18.364 17.364L12 23.728l-6.364-6.364a9 9 0 1 1 12.728 0zM12 15a4 4 0 1 0 0-8 4 4 0 0 0 0 8zm0-2a2 2 0 1 1 0-4 2 2 0 0 1 0 4z"/></symbol></svg>